<svg width="16" height="19" viewBox="0 0 16 19" fill="none" xmlns="http://www.w3.org/2000/svg">
<path d="M15.3689 14.2874C15.0916 14.928 14.7634 15.5175 14.3832 16.0596C13.8649 16.7986 13.4405 17.3101 13.1135 17.5941C12.6065 18.0604 12.0633 18.2991 11.4816 18.3127C11.0641 18.3127 10.5605 18.1939 9.97427 17.9529C9.38616 17.713 8.84568 17.5941 8.35149 17.5941C7.83319 17.5941 7.27733 17.713 6.68276 17.9529C6.08728 18.1939 5.60757 18.3195 5.24081 18.332C4.68302 18.3557 4.12704 18.1102 3.57207 17.5941C3.21787 17.2852 2.77483 16.7556 2.24408 16.0053C1.67464 15.2041 1.20647 14.275 0.839703 13.2158C0.446907 12.0717 0.25 10.9638 0.25 9.89119C0.25 8.66256 0.515485 7.60288 1.04725 6.71487C1.46517 6.00159 2.02115 5.43893 2.717 5.02588C3.41285 4.61283 4.16472 4.40234 4.97442 4.38887C5.41746 4.38887 5.99845 4.52591 6.72044 4.79525C7.4404 5.06549 7.90268 5.20253 8.10535 5.20253C8.25688 5.20253 8.77042 5.04229 9.641 4.72282C10.4643 4.42656 11.1591 4.30388 11.7283 4.35221C13.2708 4.47669 14.4296 5.08472 15.2002 6.18016C13.8208 7.016 13.1384 8.1867 13.1519 9.68851C13.1644 10.8583 13.5888 11.8318 14.4228 12.6047C14.8008 12.9634 15.2229 13.2407 15.6925 13.4376C15.5907 13.7329 15.4832 14.0158 15.3689 14.2874ZM11.8313 0.366977C11.8313 1.28385 11.4963 2.13994 10.8287 2.93232C10.0229 3.87431 9.04836 4.41863 7.99151 4.33274C7.97804 4.22274 7.97023 4.10698 7.97023 3.98532C7.97023 3.10512 8.35341 2.16314 9.03387 1.39293C9.37359 1.00297 9.80566 0.678713 10.3296 0.420051C10.8524 0.165248 11.347 0.0243365 11.8121 0.000205994C11.8257 0.122778 11.8313 0.245358 11.8313 0.366965V0.366977Z" fill="white"/>
</svg>
