<svg width="60" height="61" viewBox="0 0 60 61" fill="none" xmlns="http://www.w3.org/2000/svg">
<rect x="0.5" y="1.12183" width="59" height="59" rx="15.5" fill="white"/>
<rect x="0.5" y="1.12183" width="59" height="59" rx="15.5" stroke="url(#paint0_radial_39472_10143)"/>
<path d="M27.2496 35.6666C27.1305 35.2052 26.89 34.7841 26.5531 34.4471C26.2161 34.1101 25.795 33.8696 25.3336 33.7506L17.1536 31.6413C17.014 31.6016 16.8912 31.5176 16.8037 31.4019C16.7163 31.2861 16.6689 31.145 16.6689 30.9999C16.6689 30.8549 16.7163 30.7137 16.8037 30.598C16.8912 30.4823 17.014 30.3982 17.1536 30.3586L25.3336 28.2479C25.7948 28.129 26.2158 27.8887 26.5528 27.552C26.8897 27.2153 27.1303 26.7944 27.2496 26.3333L29.3589 18.1533C29.3981 18.0131 29.4821 17.8897 29.598 17.8018C29.7139 17.7139 29.8554 17.6663 30.0009 17.6663C30.1464 17.6663 30.2879 17.7139 30.4038 17.8018C30.5197 17.8897 30.6037 18.0131 30.6429 18.1533L32.7509 26.3333C32.8699 26.7947 33.1105 27.2158 33.4474 27.5527C33.7844 27.8897 34.2055 28.1302 34.6669 28.2493L42.8469 30.3573C42.9876 30.3961 43.1116 30.4799 43.2 30.596C43.2884 30.7121 43.3363 30.854 43.3363 30.9999C43.3363 31.1458 43.2884 31.2877 43.2 31.4038C43.1116 31.5199 42.9876 31.6038 42.8469 31.6426L34.6669 33.7506C34.2055 33.8696 33.7844 34.1101 33.4474 34.4471C33.1105 34.7841 32.8699 35.2052 32.7509 35.6666L30.6416 43.8466C30.6024 43.9867 30.5184 44.1101 30.4025 44.1981C30.2866 44.286 30.1451 44.3336 29.9996 44.3336C29.8541 44.3336 29.7126 44.286 29.5967 44.1981C29.4808 44.1101 29.3968 43.9867 29.3576 43.8466L27.2496 35.6666Z" stroke="#050810" stroke-width="2" stroke-linecap="round" stroke-linejoin="round"/>
<path d="M40.667 19V24.3333" stroke="#050810" stroke-width="2" stroke-linecap="round" stroke-linejoin="round"/>
<path d="M43.3333 21.6667H38" stroke="#050810" stroke-width="2" stroke-linecap="round" stroke-linejoin="round"/>
<path d="M19.333 37.6667V40.3334" stroke="#050810" stroke-width="2" stroke-linecap="round" stroke-linejoin="round"/>
<path d="M20.6667 39H18" stroke="#050810" stroke-width="2" stroke-linecap="round" stroke-linejoin="round"/>
<defs>
<radialGradient id="paint0_radial_39472_10143" cx="0" cy="0" r="1" gradientUnits="userSpaceOnUse" gradientTransform="translate(30 30.6218) rotate(-0.995849) scale(50.6096 110.611)">
<stop stop-color="#E3E5E8"/>
<stop offset="1" stop-color="#E3E5E8" stop-opacity="0"/>
</radialGradient>
</defs>
</svg>
