<svg width="178" height="57" viewBox="0 0 178 57" fill="none" xmlns="http://www.w3.org/2000/svg">
<g clip-path="url(#clip0_38515_28230)">
<path fill-rule="evenodd" clip-rule="evenodd" d="M59.6889 43.8819C61.3844 42.8295 62.8095 41.5453 64.0152 40.208C64.8784 41.9709 66.6107 43.1742 68.4476 43.1742C69.8632 43.1742 71.2787 42.4664 72.2519 41.1393C72.6058 42.3779 73.4905 43.1742 74.9945 43.1742C76.1232 43.1742 78.5837 42.0223 80.8148 40.3155L80.5681 41.5816C80.4797 41.9355 80.4797 42.2009 80.4797 42.3779C80.5681 42.9087 80.922 43.1741 81.4528 43.1741C82.5145 43.1741 84.0185 42.2009 84.3724 40.6085L84.9032 38.3967C85.5225 35.5656 89.6807 31.3189 90.8308 31.3189C90.9193 31.3189 91.0962 31.4074 91.0962 31.5844C91.1314 31.8653 90.9295 32.3971 90.6346 33.1742C90.1865 34.355 89.5234 36.1023 89.1499 38.3967C88.9729 39.1044 88.9729 39.8122 89.0614 40.343C89.2383 42.024 90.2115 43.1741 92.0694 43.1741C93.6593 43.1741 97.1065 41.8169 99.5225 39.1026C99.7047 40.5759 100.016 41.8292 100.474 42.6433C100.651 42.9972 101.094 43.0857 101.536 43.0857C102.067 43.0857 102.775 42.9088 103.571 42.4664C105.429 41.4932 107.817 39.193 110.118 35.831C110.472 35.9195 110.737 35.9195 111.002 35.9195C111.92 35.9195 112.946 35.5955 113.899 35.0222C113.503 36.2178 113.349 37.4388 113.48 38.5736C113.834 41.2278 116.045 43.2626 118.434 43.2626C119.761 43.2626 121.177 42.4664 122.15 41.2278C122.504 42.9087 123.565 44.6781 126.22 45.7398C126.396 45.8283 126.573 45.8283 126.75 45.8283C127.281 45.8283 127.635 45.4744 127.547 45.032C127.547 44.8551 127.458 44.5897 127.193 44.4127C126.573 43.8819 125.866 42.9087 125.689 41.4047C125.6 40.6969 125.6 39.8122 126.043 38.9275C126.573 36.5388 126.662 35.831 126.662 35.5656C126.573 34.9463 126.131 34.6809 125.6 34.6809C124.539 34.6809 123.035 35.7425 122.681 37.2465C122.061 39.5468 120.469 41.0508 119.407 41.0508C118.08 41.0508 117.372 39.6353 117.195 38.1313C116.753 34.4155 119.053 29.9034 122.504 29.9034C123.477 29.9034 124.627 30.2573 124.715 31.3189C124.824 32.2974 124.232 32.5411 123.779 32.7272C123.495 32.844 123.266 32.9381 123.3 33.1768C123.388 33.8846 124.539 34.0616 125.335 34.0616C126.043 34.0616 128.343 33.5307 127.989 30.9651C127.724 28.9302 125.512 27.957 123.035 27.957C120.077 27.957 117.561 29.4544 115.847 31.5263C115.61 31.6662 115.36 31.9163 115.072 32.2037C114.541 32.823 113.48 33.4423 112.153 33.4423C111.976 33.4423 111.622 33.3538 111.622 33.3538C112.506 31.6729 113.126 29.9034 113.126 28.3994C113.126 25.9222 111.622 24.6836 109.941 24.6836C107.817 24.6836 105.606 26.5415 105.606 30.2573C105.606 32.4691 106.49 34.2386 107.994 35.2117C106.225 38.0428 103.836 40.4316 103.482 40.4316C103.36 40.4316 103.322 40.305 103.281 40.1685C103.263 40.1072 103.244 40.044 103.217 39.9892C102.951 39.016 102.686 37.0696 102.686 35.9195C102.686 33.7962 103.04 31.6729 103.836 29.4611C103.925 29.1957 104.013 28.9303 104.013 28.7533C104.013 28.134 103.571 27.8686 103.04 27.8686C101.978 27.8686 100.297 29.1072 99.855 30.4343C99.5011 31.6729 99.3241 33.4423 99.3241 35.5656C99.3241 35.955 99.3304 36.3413 99.3432 36.7216C97.2318 39.5678 94.6265 40.52 93.8389 40.52C92.8657 40.52 92.6887 39.6353 92.8657 39.2814C93.485 36.7157 94.2812 33.7961 94.989 31.7613C95.3429 30.7881 95.5198 29.9034 95.4313 29.3726C95.2544 28.3994 94.6351 27.957 93.7504 27.957C91.6271 27.957 88.2652 30.0803 86.0534 32.9999L86.7611 29.8149C86.8496 29.461 86.8496 29.1956 86.8496 29.0187C86.7611 28.3994 86.4072 28.134 85.8764 28.134C83.3992 28.134 82.9569 29.3726 82.6914 30.6112C82.6402 30.9186 81.9361 34.5497 81.3526 37.5514C79.4647 39.2841 77.3493 40.4316 76.764 40.4316C76.0562 40.4316 75.7908 39.9007 75.7908 39.4584C75.7908 39.1528 75.9666 38.3198 76.1328 37.5327C76.2553 36.9523 76.3725 36.3968 76.4101 36.0965C76.4985 35.7426 76.4985 35.4772 76.4985 35.3002C76.4101 34.7694 75.9677 34.504 75.4369 34.504C74.3752 34.504 72.8712 35.5656 72.5173 37.0696C71.9865 39.3699 70.394 40.8739 69.3323 40.8739C68.0053 40.8739 67.2975 39.4584 67.1206 38.0428C66.6782 34.8579 68.713 29.7265 72.4288 29.7265C73.4905 29.7265 74.5522 30.0804 74.6406 31.142C74.7478 32.1598 74.2062 32.3992 73.7819 32.5868C73.5054 32.709 73.2787 32.8092 73.3136 33.0884C73.402 33.7962 74.5522 33.9731 75.2599 33.9731C76.0562 33.9731 78.268 33.4423 77.9141 30.8766C77.6487 28.8418 75.5254 27.7801 72.9597 27.7801C67.0092 27.7801 63.0495 33.6657 63.4775 38.3313C61.9664 40.0996 60.4566 41.163 57.7425 42.5548C56.2385 43.3511 54.4691 43.7934 52.8766 43.7934C47.9222 43.7934 45.5335 39.2814 45.0911 35.3886C43.8525 25.4798 52.6997 11.7667 58.8042 11.7667C60.2197 11.7667 61.4583 13.0053 61.7238 14.9517C62.0776 17.9598 61.9892 20.0831 58.8927 22.6487C58.5388 22.9142 58.4503 23.3565 58.6272 23.6219C58.8927 23.9758 59.7774 24.0643 61.4583 23.1796C64.8203 21.4986 65.9704 18.9329 65.6165 15.9249C65.2626 12.563 62.3431 9.82037 58.4503 9.82037C56.5039 9.82037 54.4691 10.3512 52.6112 11.5013C44.5603 16.4557 39.3405 27.6031 40.3136 36.0964C40.6675 38.839 41.8177 41.7586 43.941 43.7934C45.3565 45.1205 47.9222 46.713 51.0187 46.713C54.3806 46.713 57.2117 45.4744 59.6889 43.8819ZM109.41 32.2037C108.525 31.2305 107.817 29.7265 107.817 28.311C107.817 27.5147 108.083 26.63 108.702 26.63C109.233 26.63 109.941 27.4262 109.941 29.2841C109.941 30.2573 109.764 31.2305 109.41 32.2037Z" fill="#ACB0B9"/>
</g>
<defs>
<clipPath id="clip0_38515_28230">
<rect width="88.4715" height="42.4663" fill="white" transform="translate(39.8711 7.0777)"/>
</clipPath>
</defs>
</svg>
