<svg width="90" height="43" viewBox="0 0 90 43" fill="none" xmlns="http://www.w3.org/2000/svg">
<g clip-path="url(#clip0_38515_28231)">
<path fill-rule="evenodd" clip-rule="evenodd" d="M20.6889 36.8819C22.3844 35.8295 23.8095 34.5453 25.0152 33.208C25.8784 34.9709 27.6107 36.1742 29.4476 36.1742C30.8632 36.1742 32.2787 35.4664 33.2519 34.1393C33.6058 35.3779 34.4905 36.1742 35.9945 36.1742C37.1232 36.1742 39.5837 35.0223 41.8148 33.3155L41.5681 34.5816C41.4797 34.9355 41.4797 35.2009 41.4797 35.3779C41.5681 35.9087 41.922 36.1741 42.4528 36.1741C43.5145 36.1741 45.0185 35.2009 45.3724 33.6085L45.9032 31.3967C46.5225 28.5656 50.6807 24.3189 51.8308 24.3189C51.9193 24.3189 52.0962 24.4074 52.0962 24.5844C52.1314 24.8653 51.9295 25.3971 51.6346 26.1742C51.1865 27.355 50.5234 29.1023 50.1499 31.3967C49.9729 32.1044 49.9729 32.8122 50.0614 33.343C50.2383 35.024 51.2115 36.1741 53.0694 36.1741C54.6593 36.1741 58.1065 34.8169 60.5225 32.1026C60.7047 33.5759 61.0163 34.8292 61.4743 35.6433C61.6512 35.9972 62.0936 36.0857 62.5359 36.0857C63.0668 36.0857 63.7745 35.9088 64.5708 35.4664C66.4287 34.4932 68.8174 32.193 71.1177 28.831C71.4716 28.9195 71.737 28.9195 72.0024 28.9195C72.9204 28.9195 73.9464 28.5955 74.8989 28.0222C74.5031 29.2178 74.3487 30.4388 74.4796 31.5736C74.8335 34.2278 77.0453 36.2626 79.434 36.2626C80.7611 36.2626 82.1766 35.4664 83.1498 34.2278C83.5037 35.9087 84.5654 37.6781 87.2195 38.7398C87.3965 38.8283 87.5734 38.8283 87.7503 38.8283C88.2812 38.8283 88.6351 38.4744 88.5466 38.032C88.5466 37.8551 88.4581 37.5897 88.1927 37.4127C87.5734 36.8819 86.8656 35.9087 86.6887 34.4047C86.6002 33.6969 86.6002 32.8122 87.0426 31.9275C87.5734 29.5388 87.6619 28.831 87.6619 28.5656C87.5734 27.9463 87.131 27.6809 86.6002 27.6809C85.5386 27.6809 84.0345 28.7425 83.6807 30.2465C83.0613 32.5468 81.4689 34.0508 80.4072 34.0508C79.0801 34.0508 78.3724 32.6353 78.1954 31.1313C77.7531 27.4155 80.0533 22.9034 83.5037 22.9034C84.4769 22.9034 85.627 23.2573 85.7155 24.3189C85.8242 25.2974 85.2315 25.5411 84.7788 25.7272C84.4948 25.844 84.2659 25.9381 84.3 26.1768C84.3884 26.8846 85.5386 27.0616 86.3348 27.0616C87.0426 27.0616 89.3428 26.5307 88.9889 23.9651C88.7235 21.9302 86.5117 20.957 84.0345 20.957C81.0773 20.957 78.5605 22.4544 76.8466 24.5263C76.6096 24.6662 76.3595 24.9162 76.0721 25.2037C75.5412 25.823 74.4796 26.4423 73.1525 26.4423C72.9756 26.4423 72.6217 26.3538 72.6217 26.3538C73.5064 24.6729 74.1257 22.9034 74.1257 21.3994C74.1257 18.9222 72.6217 17.6836 70.9407 17.6836C68.8174 17.6836 66.6056 19.5415 66.6056 23.2573C66.6056 25.4691 67.4903 27.2386 68.9943 28.2117C67.2249 31.0428 64.8362 33.4316 64.4823 33.4316C64.3601 33.4316 64.3223 33.305 64.2815 33.1685C64.2632 33.1072 64.2443 33.044 64.2169 32.9892C63.9515 32.016 63.6861 30.0696 63.6861 28.9195C63.6861 26.7962 64.0399 24.6729 64.8362 22.4611C64.9247 22.1957 65.0131 21.9303 65.0131 21.7533C65.0131 21.134 64.5708 20.8686 64.0399 20.8686C62.9783 20.8686 61.2973 22.1072 60.855 23.4343C60.5011 24.6729 60.3241 26.4423 60.3241 28.5656C60.3241 28.955 60.3304 29.3413 60.3432 29.7216C58.2318 32.5678 55.6265 33.52 54.8389 33.52C53.8657 33.52 53.6887 32.6353 53.8657 32.2814C54.485 29.7157 55.2812 26.7961 55.989 24.7613C56.3429 23.7881 56.5198 22.9034 56.4313 22.3726C56.2544 21.3994 55.6351 20.957 54.7504 20.957C52.6271 20.957 49.2652 23.0803 47.0534 25.9999L47.7611 22.8149C47.8496 22.461 47.8496 22.1956 47.8496 22.0187C47.7611 21.3994 47.4073 21.134 46.8764 21.134C44.3992 21.134 43.9569 22.3726 43.6914 23.6112C43.6402 23.9186 42.9361 27.5497 42.3526 30.5514C40.4647 32.2841 38.3493 33.4316 37.764 33.4316C37.0562 33.4316 36.7908 32.9007 36.7908 32.4584C36.7908 32.1528 36.9666 31.3198 37.1328 30.5327C37.2553 29.9523 37.3725 29.3968 37.4101 29.0965C37.4985 28.7426 37.4985 28.4772 37.4985 28.3002C37.4101 27.7694 36.9677 27.504 36.4369 27.504C35.3752 27.504 33.8712 28.5656 33.5173 30.0696C32.9865 32.3699 31.394 33.8739 30.3323 33.8739C29.0053 33.8739 28.2975 32.4584 28.1206 31.0428C27.6782 27.8579 29.713 22.7265 33.4288 22.7265C34.4905 22.7265 35.5522 23.0804 35.6406 24.142C35.7478 25.1598 35.2062 25.3992 34.7819 25.5868C34.5054 25.709 34.2787 25.8092 34.3136 26.0884C34.402 26.7962 35.5522 26.9731 36.2599 26.9731C37.0562 26.9731 39.268 26.4423 38.9141 23.8766C38.6487 21.8418 36.5254 20.7801 33.9597 20.7801C28.0092 20.7801 24.0495 26.6657 24.4775 31.3313C22.9664 33.0996 21.4566 34.163 18.7425 35.5548C17.2385 36.3511 15.4691 36.7934 13.8766 36.7934C8.9222 36.7934 6.53347 32.2814 6.09111 28.3886C4.85251 18.4798 13.6997 4.76675 19.8042 4.76675C21.2197 4.76675 22.4583 6.00535 22.7238 7.95172C23.0776 10.9598 22.9892 13.0831 19.8927 15.6487C19.5388 15.9142 19.4503 16.3565 19.6272 16.6219C19.8927 16.9758 20.7774 17.0643 22.4583 16.1796C25.8203 14.4986 26.9704 11.9329 26.6165 8.92491C26.2626 5.56299 23.3431 2.82037 19.4503 2.82037C17.5039 2.82037 15.4691 3.3512 13.6112 4.50133C5.56028 9.45574 0.340461 20.6031 1.31365 29.0964C1.66753 31.839 2.81766 34.7586 4.94098 36.7934C6.35652 38.1205 8.9222 39.713 12.0187 39.713C15.3806 39.713 18.2117 38.4744 20.6889 36.8819ZM70.4099 25.2037C69.5252 24.2305 68.8174 22.7265 68.8174 21.311C68.8174 20.5147 69.0828 19.63 69.7021 19.63C70.2329 19.63 70.9407 20.4262 70.9407 22.2841C70.9407 23.2573 70.7638 24.2305 70.4099 25.2037Z" fill="#ACB0B9"/>
</g>
<defs>
<clipPath id="clip0_38515_28231">
<rect width="88.4715" height="42.4663" fill="white" transform="translate(0.871094 0.0776978)"/>
</clipPath>
</defs>
</svg>
