<svg width="67" height="43" viewBox="0 0 67 43" fill="none" xmlns="http://www.w3.org/2000/svg">
<g clip-path="url(#clip0_38515_28235)">
<path fill-rule="evenodd" clip-rule="evenodd" d="M16.1774 4.50128C7.65755 4.50128 0.756836 11.402 0.756836 19.9219C0.756836 26.7455 5.17098 32.5089 11.3007 34.5521C12.0717 34.6871 12.3608 34.2244 12.3608 33.8197C12.3608 33.4534 12.3415 32.239 12.3415 30.9476C8.46713 31.6608 7.46479 30.0031 7.15638 29.1357C6.98289 28.6923 6.23114 27.3237 5.57577 26.9575C5.03605 26.6684 4.26502 25.9552 5.55649 25.9359C6.77086 25.9166 7.63827 27.0539 7.92741 27.5165C9.31526 29.8489 11.532 29.1935 12.4186 28.7887C12.5536 27.7864 12.9584 27.1117 13.4017 26.7262C9.97063 26.3407 6.38535 25.0107 6.38535 19.1123C6.38535 17.4353 6.98289 16.0474 7.96596 14.968C7.81175 14.5825 7.27203 13.0019 8.12016 10.8815C8.12016 10.8815 9.41164 10.4768 12.3608 12.4622C13.5945 12.1152 14.9052 11.9417 16.216 11.9417C17.5267 11.9417 18.8375 12.1152 20.0711 12.4622C23.0203 10.4575 24.3118 10.8815 24.3118 10.8815C25.1599 13.0019 24.6202 14.5825 24.466 14.968C25.449 16.0474 26.0466 17.416 26.0466 19.1123C26.0466 25.0299 22.442 26.3407 19.0109 26.7262C19.5699 27.2081 20.0518 28.1333 20.0518 29.579C20.0518 31.6415 20.0326 33.2992 20.0326 33.8197C20.0326 34.2244 20.3217 34.7063 21.0927 34.5521C24.154 33.5187 26.8141 31.5512 28.6986 28.9267C30.5831 26.3023 31.5972 23.1529 31.598 19.9219C31.598 11.402 24.6973 4.50128 16.1774 4.50128Z" fill="#ACB0B9"/>
<path d="M72.645 27.365H72.609C72.6252 27.365 72.636 27.383 72.6522 27.3848H72.663L72.645 27.3668V27.365ZM72.6522 27.3848C72.4849 27.3866 72.0639 27.4747 71.6195 27.4747C70.2163 27.4747 69.7305 26.8271 69.7305 25.9815V20.3486H72.591C72.753 20.3486 72.8789 20.2047 72.8789 20.0068V16.9484C72.8789 16.7865 72.735 16.6425 72.591 16.6425H69.7305V12.8465C69.7305 12.7026 69.6406 12.6126 69.4787 12.6126H65.5927C65.4307 12.6126 65.3408 12.7026 65.3408 12.8465V16.7505C65.3408 16.7505 63.3798 17.2362 63.2539 17.2542C63.11 17.2902 63.02 17.4161 63.02 17.5601V20.0068C63.02 20.2047 63.1639 20.3486 63.3258 20.3486H65.3228V26.2496C65.3228 30.6393 68.3812 31.0891 70.4681 31.0891C71.4216 31.0891 72.573 30.7832 72.753 30.6933C72.8609 30.6573 72.9149 30.5313 72.9149 30.4054V27.7068C72.9173 27.6303 72.8922 27.5554 72.8439 27.4959C72.7957 27.4364 72.7276 27.3963 72.6522 27.383V27.3848ZM115.283 23.425C115.283 20.1687 113.97 19.7369 112.584 19.8809C111.505 19.9528 110.641 20.4925 110.641 20.4925V26.8253C110.641 26.8253 111.523 27.4369 112.836 27.4729C114.689 27.5269 115.283 26.8612 115.283 23.425ZM119.655 23.1372C119.655 29.308 117.658 31.0711 114.167 31.0711C111.217 31.0711 109.634 29.5778 109.634 29.5778C109.634 29.5778 109.562 30.4054 109.472 30.5134C109.418 30.6213 109.328 30.6573 109.22 30.6573H106.557C106.378 30.6573 106.216 30.5134 106.216 30.3514L106.252 10.3638C106.252 10.2019 106.396 10.058 106.557 10.058H110.389C110.551 10.058 110.695 10.2019 110.695 10.3638V17.1463C110.695 17.1463 112.171 16.1928 114.329 16.1928L114.311 16.1568C116.47 16.1568 119.655 16.9664 119.655 23.1372ZM103.967 16.6425H100.189C99.9908 16.6425 99.8829 16.7865 99.8829 16.9844V26.7713C99.8829 26.7713 98.8934 27.4729 97.5441 27.4729C96.1948 27.4729 95.799 26.8612 95.799 25.5119V16.9664C95.799 16.8045 95.6551 16.6605 95.4932 16.6605H91.6432C91.4812 16.6605 91.3373 16.8045 91.3373 16.9664V26.1596C91.3373 30.1176 93.5502 31.107 96.5906 31.107C99.0913 31.107 101.124 29.7218 101.124 29.7218C101.124 29.7218 101.214 30.4234 101.268 30.5313C101.304 30.6213 101.43 30.6933 101.556 30.6933H103.967C104.165 30.6933 104.273 30.5493 104.273 30.3874L104.309 16.9484C104.309 16.7865 104.165 16.6425 103.967 16.6425ZM61.3289 16.6246H57.4969C57.3349 16.6246 57.191 16.7865 57.191 16.9844V30.1895C57.191 30.5493 57.4249 30.6753 57.7307 30.6753H61.1849C61.5448 30.6753 61.6347 30.5134 61.6347 30.1895V16.9304C61.6347 16.7685 61.4908 16.6246 61.3289 16.6246ZM59.4399 10.5437C58.0546 10.5437 56.9571 11.6411 56.9571 13.0264C56.9571 14.4117 58.0546 15.5091 59.4399 15.5091C60.7892 15.5091 61.8866 14.4117 61.8866 13.0264C61.8866 11.6411 60.7892 10.5437 59.4399 10.5437ZM89.1065 10.0939H85.3104C85.1485 10.0939 85.0046 10.2379 85.0046 10.3998V17.758H79.0497V10.3998C79.0497 10.2379 78.9058 10.0939 78.7439 10.0939H74.9118C74.7499 10.0939 74.606 10.2379 74.606 10.3998V30.3874C74.606 30.5493 74.7679 30.6933 74.9118 30.6933H78.7439C78.9058 30.6933 79.0497 30.5493 79.0497 30.3874V21.8418H85.0046L84.9686 30.3874C84.9686 30.5493 85.1125 30.6933 85.2745 30.6933H89.1065C89.2684 30.6933 89.4123 30.5493 89.4123 30.3874V10.3998C89.4123 10.2379 89.2684 10.0939 89.1065 10.0939ZM55.1581 18.9453V29.272C55.1581 29.344 55.1401 29.4699 55.0501 29.5059C55.0501 29.5059 52.8013 31.107 49.0952 31.107C44.6155 31.107 39.3083 29.7038 39.3083 20.4566C39.3083 11.2094 43.9499 9.30235 48.4835 9.32034C52.4055 9.32034 53.9887 10.2019 54.2405 10.3638C54.3125 10.4538 54.3485 10.5257 54.3485 10.6157L53.5929 13.818C53.5929 13.9799 53.431 14.1778 53.2331 14.1238C52.5854 13.926 51.6139 13.5302 49.3291 13.5302C46.6845 13.5302 43.8419 14.2858 43.8419 20.2407C43.8419 26.1956 46.5405 26.8972 48.4835 26.8972C50.1387 26.8972 50.7324 26.6993 50.7324 26.6993V22.5615H48.0877C47.8898 22.5615 47.7459 22.4175 47.7459 22.2556V18.9453C47.7459 18.7834 47.8898 18.6395 48.0877 18.6395H54.8162C55.0141 18.6395 55.1581 18.7834 55.1581 18.9453Z" fill="#ACB0B9"/>
</g>
<defs>
<clipPath id="clip0_38515_28235">
<rect width="119.437" height="42.4663" fill="white" transform="translate(0.756836 0.0776978)"/>
</clipPath>
</defs>
</svg>
