<svg width="109" height="43" viewBox="0 0 109 43" fill="none" xmlns="http://www.w3.org/2000/svg">
<g clip-path="url(#clip0_38515_28224)">
<path d="M34.517 28.7657L35.8159 25.7299C37.2381 26.7831 39.093 27.3405 40.9484 27.3405C42.3089 27.3405 43.1745 26.8141 43.1745 26.0088C43.1435 23.7782 34.9809 25.513 34.9188 19.9052C34.8878 17.0551 37.4234 14.8556 41.0105 14.8556C43.1435 14.8556 45.2774 15.3824 46.7922 16.5908L45.5785 19.6914C44.1847 18.7952 42.4632 18.1704 40.8247 18.1704C39.7116 18.1704 38.9693 18.6967 38.9693 19.3788C39.0003 21.5783 47.2254 20.3699 47.3181 25.7299C47.3181 28.642 44.8441 30.6868 41.3191 30.6868C38.7223 30.6868 36.3414 30.0673 34.5166 28.7657H34.517ZM86.2357 24.6306C85.9079 25.2131 85.431 25.6979 84.8539 26.0354C84.2769 26.3728 83.6205 26.5506 82.952 26.5507C80.8687 26.5507 79.18 24.8585 79.18 22.7712C79.18 20.6838 80.8687 18.9916 82.952 18.9916C83.6205 18.9917 84.2769 19.1696 84.8539 19.507C85.431 19.8444 85.9079 20.3292 86.2357 20.9118L89.8468 18.9074C88.4942 16.4901 85.9142 14.8556 82.952 14.8556C78.5889 14.8556 75.0519 18.3992 75.0519 22.7712C75.0519 27.1427 78.5889 30.6868 82.952 30.6868C85.9142 30.6868 88.4942 29.0522 89.8468 26.635L86.2357 24.6306ZM49.6613 30.3768H54.1756V8.26636H49.6618L49.6613 30.3768ZM92.1265 8.26636V30.3768H96.6409V23.7525L101.99 30.3768H107.76L100.958 22.5073L107.265 15.1642H101.743L96.6409 21.2692V8.26636H92.1265ZM68.0836 15.1651V16.9624C67.3417 15.723 65.5173 14.8556 63.6003 14.8556C59.6425 14.8556 56.5197 18.3566 56.5197 22.7556C56.5197 27.1547 59.6425 30.6868 63.6003 30.6868C65.5173 30.6868 67.3417 29.8194 68.0836 28.5799V30.3768H72.5979V15.1651H68.0836ZM68.0836 24.6612C67.4343 25.7454 66.0738 26.5503 64.559 26.5503C62.4752 26.5503 60.7866 24.8585 60.7866 22.7712C60.7866 20.6838 62.4752 18.9916 64.559 18.9916C66.0738 18.9916 67.4343 19.828 68.0836 20.9428V24.6612Z" fill="#ACB0B9"/>
<path d="M10.6763 7.77789C9.21337 7.77789 8.02758 8.96634 8.02758 10.4319C8.02724 10.7801 8.09547 11.125 8.22839 11.4468C8.36131 11.7686 8.55632 12.0611 8.80228 12.3075C9.04823 12.554 9.34032 12.7496 9.66187 12.8831C9.98342 13.0167 10.3281 13.0856 10.6763 13.086H13.3255V10.4319C13.3261 9.72871 13.0473 9.05404 12.5505 8.55632C12.0537 8.0586 11.3795 7.7786 10.6763 7.77789ZM10.6763 14.8554H3.6126C2.14965 14.8554 0.963867 16.0438 0.963867 17.5098C0.963867 18.9755 2.14965 20.1639 3.6126 20.1639H10.6768C12.1393 20.1639 13.3255 18.9755 13.3255 17.5098C13.3255 16.0438 12.1393 14.8554 10.6763 14.8554Z" fill="#ACB0B9"/>
<path d="M27.4534 17.5098C27.4534 16.0438 26.2672 14.8554 24.8042 14.8554C23.3413 14.8554 22.1555 16.0438 22.1555 17.5098V20.1639H24.8042C25.5075 20.1632 26.1816 19.8832 26.6784 19.3855C27.1752 18.8878 27.454 18.2131 27.4534 17.5098ZM20.3897 17.5098V10.4319C20.3903 9.72871 20.1115 9.05404 19.6147 8.55632C19.1179 8.0586 18.4438 7.7786 17.7405 7.77789C16.2776 7.77789 15.0918 8.96634 15.0918 10.4319V17.5094C15.0918 18.9759 16.2776 20.1643 17.7405 20.1643C18.4438 20.1636 19.1179 19.8836 19.6147 19.3859C20.1115 18.8882 20.3903 18.2135 20.3897 17.5103" fill="#ACB0B9"/>
<path d="M17.7405 34.3194C18.4438 34.3187 19.1179 34.0386 19.6147 33.5409C20.1115 33.0432 20.3903 32.3685 20.3897 31.6653C20.3903 30.9621 20.1115 30.2874 19.6147 29.7897C19.1179 29.292 18.4438 29.012 17.7405 29.0113H15.0918V31.6653C15.0918 33.1309 16.2776 34.3194 17.7405 34.3194ZM17.7405 27.2419H24.8047C26.2672 27.2419 27.4534 26.0534 27.4534 24.5874C27.454 23.8842 27.1752 23.2095 26.6784 22.7118C26.1816 22.2141 25.5075 21.9341 24.8042 21.9333H17.7405C16.2776 21.9333 15.0918 23.1218 15.0918 24.5874C15.0914 24.9356 15.1597 25.2804 15.2926 25.6022C15.4255 25.9241 15.6205 26.2165 15.8665 26.463C16.1124 26.7094 16.4045 26.905 16.7261 27.0386C17.0476 27.1722 17.3923 27.2411 17.7405 27.2414" fill="#ACB0B9"/>
<path d="M0.963869 24.5874C0.963519 24.9356 1.03175 25.2804 1.16467 25.6022C1.2976 25.9241 1.4926 26.2165 1.73856 26.463C1.98452 26.7094 2.27661 26.905 2.59816 27.0386C2.9197 27.1722 3.26441 27.2411 3.6126 27.2414C4.31583 27.2407 4.98999 26.9607 5.48679 26.463C5.98359 25.9653 6.26236 25.2906 6.26177 24.5874V21.9333H3.6126C2.14965 21.9333 0.963869 23.1218 0.963869 24.5874ZM8.02759 24.5874V31.6649C8.02759 33.1309 9.21337 34.3194 10.6763 34.3194C11.3795 34.3187 12.0537 34.0386 12.5505 33.5409C13.0473 33.0432 13.3261 32.3685 13.3255 31.6653V24.5874C13.3258 24.2392 13.2576 23.8943 13.1246 23.5725C12.9917 23.2506 12.7966 22.9581 12.5506 22.7116C12.3046 22.4652 12.0125 22.2696 11.6909 22.1361C11.3693 22.0025 11.0245 21.9336 10.6763 21.9333C9.21337 21.9333 8.02759 23.1218 8.02759 24.5874Z" fill="#ACB0B9"/>
</g>
<defs>
<clipPath id="clip0_38515_28224">
<rect width="107.051" height="42.4663" fill="white" transform="translate(0.963867 0.0776978)"/>
</clipPath>
</defs>
</svg>
