<svg width="74" height="43" viewBox="0 0 74 43" fill="none" xmlns="http://www.w3.org/2000/svg">
<g clip-path="url(#clip0_38515_28220)">
<path fill-rule="evenodd" clip-rule="evenodd" d="M48.1871 28.0502C51.1057 28.0502 53.4797 25.7234 53.4797 22.8635C53.4797 20.0034 51.1057 17.6767 48.1871 17.6767C45.269 17.6767 42.8945 20.0034 42.8945 22.8635C42.8945 25.7234 45.269 28.0502 48.1871 28.0502ZM53.4797 9.97339H53.6233H55.9873V30.525H53.4797V28.473C52.0327 29.7874 50.1668 30.5074 48.1871 30.5074C43.8865 30.5074 40.3874 27.0783 40.3874 22.8635C40.3874 18.6484 43.8865 15.2194 48.1871 15.2194C50.1668 15.2194 52.0327 15.9393 53.4797 17.2538V9.97339ZM-3.81229 27.9597C-0.894015 27.9597 1.48022 25.6329 1.48022 22.7729C1.48022 19.913 -0.894015 17.5862 -3.81229 17.5862C-6.73072 17.5862 -9.10496 19.913 -9.10496 22.7729C-9.10496 25.6329 -6.73072 27.9597 -3.81229 27.9597ZM-9.10496 17.1636C-7.65785 15.849 -5.79154 15.129 -3.81229 15.129C0.4885 15.129 3.98756 18.5581 3.98756 22.7729C3.98756 26.9878 0.4885 30.4169 -3.81229 30.4169C-5.79154 30.4169 -7.65785 29.697 -9.10496 28.3823V35.6629H-11.6123V15.1113H-9.10496V17.1636ZM8.77169 21.5794C9.33602 19.2567 11.4387 17.5889 13.8371 17.5889C16.2042 17.5889 18.187 19.2211 18.7155 21.5794H8.77169ZM13.8371 15.1113C9.60067 15.1113 6.15424 18.5687 6.15424 22.8181C6.15424 27.0677 9.60067 30.525 13.8371 30.525C16.2094 30.525 18.3867 29.634 19.8117 28.0806L20.552 27.2731L20.6474 27.1689L20.5436 27.0728L18.9341 25.5877L18.8303 25.4917L18.7343 25.596L17.9941 26.4036C17.0498 27.4329 15.4959 28.0476 13.8371 28.0476C11.4387 28.0476 9.33612 26.3798 8.77169 24.0568H21.3206V22.8181C21.3206 18.4965 18.0334 15.1113 13.8371 15.1113ZM70.8127 22.8182C70.8127 25.7017 68.4388 28.0475 65.5202 28.0475C62.602 28.0475 60.2276 25.7017 60.2276 22.8182C60.2276 19.9346 62.602 17.5888 65.5202 17.5888C68.4388 17.5888 70.8127 19.9346 70.8127 22.8182ZM65.5202 15.1113C61.2195 15.1113 57.7205 18.5686 57.7205 22.8182C57.7205 27.0677 61.2195 30.525 65.5202 30.525C69.8213 30.525 73.3203 27.0677 73.3203 22.8182C73.3203 18.5686 69.8213 15.1113 65.5202 15.1113ZM30.637 15.1113C28.8948 15.1113 27.2349 15.7748 25.9284 16.9865V15.1113H23.4874V30.525H25.9284V22.6591C25.9284 19.8528 28.0408 17.5695 30.637 17.5695C33.2337 17.5695 35.3465 19.8528 35.3465 22.6591V30.525H37.787V22.6591C37.787 18.4973 34.5795 15.1113 30.637 15.1113Z" fill="#ACB0B9"/>
</g>
<defs>
<clipPath id="clip0_38515_28220">
<rect width="113.244" height="42.4663" fill="white" transform="translate(-39.9229 0.0776978)"/>
</clipPath>
</defs>
</svg>
