<svg width="100" height="43" viewBox="0 0 100 43" fill="none" xmlns="http://www.w3.org/2000/svg">
<g clip-path="url(#clip0_38515_28233)">
<path fill-rule="evenodd" clip-rule="evenodd" d="M99.2769 27.1175C95.1559 34.1044 88.6294 32.077 86.6693 30.4897C85.8351 31.0557 84.3723 32.2963 82.4218 32.1531C78.2678 31.8481 76.7803 25.912 76.7803 25.912C76.8101 25.9357 75.5429 26.3492 74.858 26.3418C74.8492 28.0827 73.3444 32.2412 69.2832 32.188C64.726 32.1285 63.7995 25.3391 63.7995 25.3391C63.7995 25.3391 63.346 25.9688 61.6217 26.596C61.7085 25.2586 61.645 31.9844 56.183 32.0833C51.8649 32.1615 50.6993 25.2344 50.6993 25.2344C50.6993 25.2344 49.9502 26.0125 48.4984 26.2824C48.5907 24.9232 48.4407 32.1061 42.978 32.0833C39.2864 32.0679 38.0249 27.8162 38.123 27.226C38.2482 26.4739 36.8754 32.189 33.2895 32.1C31.8097 32.0565 30.7065 30.9851 30.0143 29.5567C29.0875 30.6171 27.7421 32.1 26.2327 32.1C23.5234 32.1 22.3289 29.8339 22.5312 23.3616C22.5485 22.5939 22.4931 22.292 21.73 22.1771C21.2719 22.1007 20.8029 21.956 20.3065 21.8797C20.1474 22.4106 18.7982 31.9273 14.1587 32.1079C12.6023 32.1685 11.7512 30.8202 11.0523 29.8195C9.98085 31.2368 8.56654 32.1531 6.55173 32.1531C3.13881 32.1531 0.813477 29.394 0.813477 25.9906C0.813477 22.587 3.13881 19.8283 6.55173 19.8283C7.15517 19.8283 7.32457 19.9148 7.87585 20.0756C6.74213 9.75335 9.41953 8.14012 11.7617 8.14012C14.0103 8.14012 17.8518 13.3591 12.4465 26.5971C13.6465 30.5456 16.2337 30.3223 17.4769 22.194C17.7299 20.5417 17.0534 18.3121 18.1057 18.0009C20.0294 17.4322 20.2335 19.1385 21.1354 19.4228C22.0892 19.7233 22.6458 19.694 23.5614 19.8852C25.1259 20.1907 25.7364 21.0311 25.5458 22.903C25.3169 25.2715 24.9165 28.7188 26.1373 29.1389C27.0178 29.4441 28.6252 27.6183 28.9073 26.6193C29.1893 25.6203 29.2482 25.2783 29.2732 24.5456C29.3114 22.9795 29.3592 21.8316 29.6263 20.6472C29.7406 20.1889 29.8709 19.8854 30.3894 19.8647C30.816 19.8538 31.5963 19.7253 31.9397 19.9927C32.3975 20.3366 32.3403 20.6856 32.2878 21.6042C31.7554 34.7013 35.8531 28.1631 37.0749 22.928C36.6398 17.0084 36.9386 8.24852 40.6481 8.1016C42.5773 8.0252 43.4302 9.57074 43.524 10.7243C43.7894 13.9825 42.303 19.3797 40.3482 23.0093C39.231 30.4152 45.233 31.8795 46.1928 25.9681C44.6224 25.2215 42.9253 22.1994 44.3063 20.7267C45.0813 19.9002 48.3069 21.0875 48.3597 23.6773C49.942 23.2541 50.1533 22.3607 50.1752 22.5088C49.7402 16.5891 50.1437 8.2486 53.8534 8.10168C55.7824 8.02527 56.6352 9.57082 56.729 10.7244C56.9944 13.9826 55.508 19.3798 53.5534 23.0094C52.4361 30.4152 58.4382 31.8797 59.3977 25.9683C58.2351 25.7439 55.7809 22.5295 57.1969 20.7268C57.9537 19.7634 61.1675 21.7668 61.5273 23.763C63.0473 23.3329 63.2538 22.4679 63.2756 22.6135C62.8405 16.694 63.2439 8.35351 66.9537 8.20659C68.8827 8.13018 69.7355 9.67572 69.8293 10.8293C70.0946 14.0875 68.6082 19.4848 66.6534 23.1144C65.5364 30.5203 71.5383 31.9844 72.4981 26.073C70.9004 25.807 68.6298 22.413 70.4573 20.6768C71.1874 19.983 73.9774 21.7838 74.6305 23.8383C75.5379 23.8034 76.1027 23.4904 76.2238 23.4589C74.7751 16.5095 75.8536 8.17138 79.8443 8.10178C82.0012 8.0642 84.1099 9.26787 83.1844 15.8792C82.3009 22.1872 79.125 24.8344 79.1324 24.8749C79.3172 25.6306 80.9468 31.9551 85.0506 28.6181C84.8381 28.137 84.6255 27.6457 84.5066 27.0503C83.8264 23.5825 85.1624 19.6656 88.7937 19.0326C90.8742 18.6699 92.8341 19.6828 93.144 21.9664C93.6538 25.703 90.2797 28.4092 88.9966 28.9962C88.4219 28.6697 94.2059 32.3792 97.6385 24.9453C97.8376 24.5208 98.0775 24.5568 98.3884 24.7755C98.608 24.9301 99.8586 26.1148 99.2769 27.1175ZM9.03433 25.0724C8.85968 24.5503 8.50125 23.3997 8.3745 22.9012C7.67645 22.2942 7.17821 22.1955 6.2822 22.1955C4.291 22.1955 3.11901 24.0366 3.11901 26.0217C3.11901 28.0068 4.3958 29.848 6.38702 29.848C8.11264 29.848 9.42598 28.6748 9.82668 27.0139C9.54622 26.3664 9.268 25.7713 9.03433 25.0724ZM11.7129 10.8725C10.3138 10.8725 9.83915 14.2101 9.93125 17.0575C10.0127 19.5748 10.7162 21.7911 11.0811 22.7841C11.1737 22.9086 11.1565 22.8276 11.2392 22.9596C13.6685 17.6368 12.6609 10.8725 11.7129 10.8725ZM40.8479 10.9773C39.0396 10.7699 39.0513 18.3029 39.2758 19.9927C40.2149 18.4902 41.8464 11.3819 40.8479 10.9773ZM54.0529 10.9773C52.2446 10.7699 52.2562 18.3029 52.4809 19.9927C53.4199 18.4902 55.0515 11.3819 54.0529 10.9773ZM67.1533 11.0821C65.3448 10.8748 65.3565 18.4078 65.5811 20.0976C66.5202 18.595 68.1518 11.4867 67.1533 11.0821ZM80.0438 10.5364C77.2264 11.1021 77.8825 20.496 78.3104 22.1435C81.6291 17.5853 81.6975 10.3652 80.0438 10.5364ZM90.6029 22.2755C90.4597 21.6765 89.7434 21.3564 89.249 21.4353C87.8344 21.6285 86.4623 23.3904 86.9934 26.0727C87.1116 26.6701 87.4075 27.22 87.4027 27.2018C90.5687 25.0777 90.8378 23.404 90.6029 22.2755ZM30.944 17.7913C30.5397 17.7913 30.1444 17.6715 29.8082 17.4469C29.472 17.2224 29.2099 16.9031 29.0551 16.5296C28.9003 16.1561 28.8598 15.745 28.9387 15.3485C29.0175 14.9519 29.2122 14.5876 29.4981 14.3017C29.7839 14.0158 30.1482 13.8211 30.5447 13.7422C30.9413 13.6633 31.3523 13.7038 31.7259 13.8585C32.0995 14.0132 32.4187 14.2753 32.6433 14.6114C32.8679 14.9476 32.9878 15.3429 32.9878 15.7472C32.9878 16.0156 32.935 16.2814 32.8322 16.5294C32.7296 16.7774 32.5791 17.0027 32.3892 17.1925C32.1994 17.3823 31.9741 17.5329 31.7262 17.6356C31.4782 17.7384 31.2125 17.7913 30.944 17.7913Z" fill="#ACB0B9"/>
</g>
<defs>
<clipPath id="clip0_38515_28233">
<rect width="99.0881" height="42.4663" fill="white" transform="translate(0.813477 0.0776978)"/>
</clipPath>
</defs>
</svg>
