<svg width="84" height="43" viewBox="0 0 84 43" fill="none" xmlns="http://www.w3.org/2000/svg">
<g clip-path="url(#clip0_38515_28226)">
<path d="M0.52832 7.1554V30.628L3.53144 30.6397V19.4622H10.7505V16.5049H3.51989V10.1011H12.9335V7.1554H0.52832ZM18.316 11.9291C18.8368 11.9291 19.3362 11.7206 19.7045 11.3494C20.0727 10.9782 20.2796 10.4747 20.2796 9.94976C20.2796 9.4248 20.0727 8.92135 19.7045 8.55015C19.3362 8.17895 18.8368 7.97042 18.316 7.97042C17.7952 7.97042 17.2958 8.17895 16.9276 8.55015C16.5593 8.92135 16.3524 9.4248 16.3524 9.94976C16.3524 10.4747 16.5593 10.9782 16.9276 11.3494C17.2958 11.7206 17.7952 11.9291 18.316 11.9291ZM16.8029 14.8748V30.6397H19.806V14.8748H16.8029Z" fill="#ACB0B9"/>
<path fill-rule="evenodd" clip-rule="evenodd" d="M30.906 14.4207C26.9326 14.4207 24.1605 17.8089 24.1605 21.8374C24.1605 25.866 26.9326 29.2541 30.906 29.2541C32.7309 29.2541 34.2325 28.5555 35.3298 27.3912V29.487C35.3374 30.1132 35.2218 30.7347 34.9897 31.3156C34.7576 31.8965 34.4136 32.4253 33.9775 32.8714C33.5415 33.3174 33.022 33.6719 32.4492 33.9144C31.8764 34.1569 31.2616 34.2825 30.6403 34.284C29.6816 34.284 28.7345 33.9114 27.9837 33.3758L26.4821 35.9955C27.6432 36.752 28.9853 37.1787 30.3669 37.2304C31.7485 37.2821 33.1183 36.9569 34.3318 36.2893C35.5453 35.6216 36.5576 34.6361 37.2618 33.4369C37.966 32.2376 38.3361 30.8689 38.3329 29.4753V14.8864H35.3298V16.2953C34.2325 15.131 32.7309 14.4324 30.906 14.4324V14.4207ZM27.1521 21.8374C27.1521 19.3341 29.0463 17.3664 31.2409 17.3664C33.4355 17.3664 35.3182 19.3458 35.3182 21.8374C35.3182 24.3407 33.424 26.2967 31.2409 26.2967C29.0463 26.2967 27.1521 24.3407 27.1521 21.8374Z" fill="#ACB0B9"/>
<path d="M49.121 17.3665C48.2621 17.3818 47.4437 17.7373 46.8428 18.3561C46.2419 18.9749 45.9068 19.8073 45.91 20.6732V30.6397H42.9068V14.8749H45.91V16.3186C46.3593 15.7184 46.9429 15.2336 47.6133 14.9038C48.2837 14.574 49.0219 14.4085 49.7678 14.4208C51.87 14.4208 53.4871 15.4687 54.4111 17.0754C54.9266 16.27 55.6322 15.6059 56.4646 15.1426C57.2971 14.6793 58.2306 14.4313 59.1814 14.4208C62.5888 14.4208 64.7256 17.1919 64.7256 20.6266V30.6397H61.7456V20.6615C61.7488 19.7956 61.4137 18.9632 60.8128 18.3444C60.2119 17.7256 59.3935 17.3702 58.5346 17.3549C57.6757 17.3702 56.8573 17.7256 56.2564 18.3444C55.6555 18.9632 55.3204 19.7956 55.3236 20.6615V30.6281H52.3205V20.6615C52.3237 19.7976 51.9902 18.9669 51.3917 18.3485C50.7933 17.73 49.9779 17.3732 49.121 17.3549V17.3665Z" fill="#ACB0B9"/>
<path fill-rule="evenodd" clip-rule="evenodd" d="M80.7 16.6679C80.018 15.9511 79.1982 15.3821 78.2906 14.9957C77.3829 14.6093 76.4066 14.4137 75.4214 14.4208C70.963 14.4208 67.7981 18.2164 67.7981 22.7573C67.7981 27.2981 70.963 31.0938 75.4214 31.0938C76.4063 31.0988 77.382 30.9022 78.2894 30.516C79.1967 30.1297 80.0168 29.5618 80.7 28.8466V30.6397H83.6915V14.8748H80.6884V16.6679H80.7ZM70.7897 22.7573C70.7897 19.7533 73.0767 17.3665 75.7448 17.3665C78.4014 17.3665 80.7 19.7533 80.7 22.7573C80.7 25.7612 78.413 28.1364 75.7448 28.1364C73.0882 28.1364 70.7897 25.7612 70.7897 22.7573Z" fill="#ACB0B9"/>
</g>
<defs>
<clipPath id="clip0_38515_28226">
<rect width="83.1632" height="42.4663" fill="white" transform="translate(0.52832 0.0776978)"/>
</clipPath>
</defs>
</svg>
