<svg width="102" height="43" viewBox="0 0 102 43" fill="none" xmlns="http://www.w3.org/2000/svg">
<g clip-path="url(#clip0_38515_28222)">
<path d="M27.897 27.578C25.0805 27.578 23.2161 25.4445 22.696 24.6181C23.3633 19.3901 25.3162 17.7372 27.897 17.7372C30.4485 17.7372 32.4308 19.7361 32.4308 22.6575C32.4308 25.579 30.4485 27.578 27.897 27.578ZM27.897 14.5273C23.3044 14.5273 20.7334 17.4585 19.9974 20.4761C19.1632 18.9384 18.545 16.8819 18.0642 14.9694H11.715V22.7057C11.715 25.5118 10.4098 27.5876 7.85837 27.5876C5.30693 27.5876 3.84477 25.5118 3.84477 22.7057L3.8742 14.9694H0.213867V22.7057C0.213867 24.9641 0.959673 27.0111 2.32371 28.4718C3.72701 29.9806 5.64058 30.7686 7.85837 30.7686C12.2743 30.7686 15.3557 27.4531 15.3557 22.7057V17.5065C15.8169 19.2171 16.916 22.5038 19.016 25.3869L17.0534 36.333H20.7726L22.0679 28.5775C22.4899 28.9234 22.9413 29.231 23.4221 29.5097C24.6684 30.2785 26.0913 30.711 27.5634 30.759C27.5634 30.759 27.789 30.7686 27.9068 30.7686C32.4602 30.7686 36.0812 27.3186 36.0812 22.6575C36.0812 17.9966 32.4503 14.5273 27.897 14.5273Z" fill="#ACB0B9"/>
<path d="M80.4861 16.6231V14.9702H76.8945V30.2792H80.5352V24.2825C80.5352 20.5921 80.8787 17.9397 85.9325 18.2857V14.7876C83.5773 14.6146 81.7422 15.0951 80.4861 16.6231Z" fill="#ACB0B9"/>
<path d="M55.2086 14.9705L52.5688 25.6763L49.7524 14.9705H45.1206L42.2943 25.6763L39.6644 14.9705H35.9746L40.0177 30.2893H44.3944L47.4365 19.4104L50.4491 30.2893H54.8259L59.1045 14.9705H55.2086Z" fill="#ACB0B9"/>
<path d="M67.1216 27.5876C64.531 27.5876 62.588 25.5888 62.588 22.6575C62.588 19.7265 64.5408 17.7372 67.1216 17.7372C69.6731 17.7372 71.6554 19.7361 71.6554 22.6575C71.6554 25.579 69.6731 27.5876 67.1216 27.5876ZM67.1216 14.5273C62.5388 14.5273 58.9473 18.0062 58.9473 22.6575C58.9473 27.3089 62.5388 30.759 67.1216 30.759C71.675 30.759 75.2961 27.3089 75.2961 22.6575C75.2961 18.0062 71.6849 14.5273 67.1216 14.5273Z" fill="#ACB0B9"/>
<path d="M91.1544 22.754H91.9984L97.0816 30.2884H101.193L95.3447 21.9371C98.1808 20.8511 100.085 18.0161 100.085 14.9697H96.4536C96.4536 18.2756 93.7942 19.5249 91.1544 19.5249V8.92487H87.5039V30.2884H91.1446L91.1544 22.754Z" fill="#ACB0B9"/>
</g>
<defs>
<clipPath id="clip0_38515_28222">
<rect width="100.858" height="42.4663" fill="white" transform="translate(0.213867 0.0776978)"/>
</clipPath>
</defs>
</svg>
