<svg width="86" height="43" viewBox="0 0 86 43" fill="none" xmlns="http://www.w3.org/2000/svg">
<path fill-rule="evenodd" clip-rule="evenodd" d="M36.7666 13.5519C38.3184 13.257 39.8702 12.9467 41.4065 12.6518C41.391 19.5263 41.391 26.3853 41.4065 33.2443C39.8702 32.934 38.3184 32.6081 36.7821 32.3132C36.7355 31.708 36.7666 31.1028 36.7666 30.4976C36.7511 24.8646 36.7511 19.216 36.7666 13.5519ZM74.3048 16.5934C73.0013 16.6244 71.6668 17.0279 70.6581 17.8659C69.8201 18.5487 69.2149 19.4798 68.8735 20.504C68.5011 21.6058 68.4235 22.8006 68.5631 23.9645C68.7183 25.2991 69.2459 26.6181 70.177 27.5957C70.9064 28.3716 71.8995 28.9148 72.9392 29.1475C74.2428 29.4424 75.6549 29.3958 76.8808 28.8217C77.7809 28.4182 78.5258 27.7044 79.0534 26.8664C79.6431 25.9198 79.9379 24.818 80.031 23.7007C80.1396 22.4437 80 21.1557 79.5344 19.9764C79.131 18.9211 78.4016 17.9745 77.424 17.3693C76.4929 16.7951 75.3911 16.5469 74.3048 16.5934ZM73.622 12.2639C75.8722 12.1087 78.2309 12.5277 80.1707 13.7226C81.2569 14.3898 82.188 15.2744 82.9174 16.3141C83.5536 17.2452 84.0192 18.2849 84.345 19.3712C84.6864 20.535 84.8106 21.7609 84.8261 22.9713C84.8261 25.1904 84.314 27.4561 83.0881 29.3338C82.0173 31.0097 80.3879 32.3132 78.5258 32.996C77.3153 33.4461 76.0429 33.6633 74.7549 33.6943C72.334 33.7409 69.8356 33.1512 67.8648 31.7235C66.1889 30.5287 64.9629 28.7751 64.3422 26.8198C63.9077 25.5163 63.737 24.1197 63.7525 22.7386C63.7681 20.3333 64.4664 17.8814 65.9716 15.9882C67.1976 14.4209 68.9511 13.3036 70.8598 12.7449C71.7444 12.4656 72.6754 12.3104 73.622 12.2639ZM7.096 13.1794C8.2133 12.5277 9.5013 12.2173 10.7893 12.2328C12.8377 12.3104 14.8085 13.3657 16.0034 15.0416C16.6086 14.2191 17.4466 13.5829 18.3466 13.1329C20.3795 12.1552 22.8469 12.0001 24.9418 12.8536C25.9194 13.257 26.804 13.8777 27.4868 14.6847C28.1851 15.5071 28.6506 16.5003 28.9299 17.5245C29.2248 18.5952 29.3024 19.7125 29.2713 20.8143C29.2713 24.9577 29.2713 29.1165 29.2713 33.2598C27.7351 32.9495 26.1832 32.6236 24.6314 32.3288C24.6159 28.3561 24.6314 24.3835 24.6159 20.4109C24.6314 19.4953 24.3056 18.5642 23.6538 17.928C22.9555 17.2141 21.9313 16.8727 20.9381 16.8883C20.0536 16.8727 19.1536 17.1365 18.4552 17.6952C17.6638 18.3159 17.2448 19.3401 17.2448 20.3488C17.2448 24.6473 17.2448 28.9613 17.2448 33.2598C15.693 32.9495 14.1412 32.6236 12.5894 32.3288C12.5739 31.0563 12.5894 29.7683 12.5739 28.4803C12.5739 25.8112 12.5739 23.142 12.5739 20.4574C12.6049 19.5418 12.2946 18.5952 11.6428 17.9435C11.0686 17.3538 10.2772 17.0124 9.48579 16.9193C8.7254 16.8417 7.9495 16.9038 7.23566 17.1986C6.4908 17.509 5.85455 18.0987 5.51316 18.828C5.28039 19.3246 5.17176 19.8677 5.17176 20.4109C5.17176 23.7628 5.17176 27.1147 5.17176 30.4666C5.18728 31.3977 5.15624 32.3288 5.18728 33.2598C3.63547 32.965 2.09918 32.6236 0.562887 32.3443C0.531851 31.8011 0.578405 31.2425 0.531851 30.7149C0.547369 30.0941 0.547369 29.4734 0.531851 28.8527C0.578405 28.2785 0.531851 27.6888 0.547369 27.1147C0.547369 25.4698 0.547369 23.8248 0.547369 22.1799C0.531851 21.1557 0.562887 20.116 0.531851 19.0918C0.547369 18.5177 0.547369 17.928 0.531851 17.3538C0.562887 16.2055 0.547369 15.0726 0.547369 13.9243C0.562887 13.8157 0.469778 13.645 0.593923 13.5829C2.13021 13.2881 3.65099 12.9932 5.18728 12.6984C5.17176 13.3967 5.18728 14.095 5.18728 14.7933C5.73041 14.1416 6.36665 13.5829 7.096 13.1794ZM57.716 12.5432C58.4609 12.419 59.2213 12.2949 59.9661 12.1708C59.9661 13.7846 59.9661 15.3985 59.9661 17.0124C59.2213 17.1521 58.4764 17.2917 57.7315 17.4159C56.6142 17.6021 55.4504 17.928 54.6124 18.7349C53.9296 19.3712 53.6037 20.3022 53.5416 21.2178C53.4951 21.8696 53.5261 22.5213 53.5261 23.1886C53.5261 26.5405 53.5261 29.8924 53.5261 33.2443C52.2381 32.9805 50.9501 32.7167 49.6466 32.4684C49.3983 32.4219 49.1655 32.3598 48.9017 32.3288C48.8397 31.9718 48.8862 31.6149 48.8707 31.258C48.8707 27.6888 48.8707 24.1352 48.8707 20.566C48.9017 19.4487 49.0879 18.3159 49.5535 17.2762C50.0035 16.2365 50.7949 15.352 51.726 14.7002C52.9675 13.8467 54.4106 13.3346 55.8693 12.9467C56.4901 12.807 57.0798 12.6363 57.716 12.5432ZM38.6288 3.65133C39.3736 3.55822 40.1806 3.63581 40.8168 4.08584C41.5462 4.5669 41.9496 5.43591 41.9651 6.2894C42.0117 6.53769 41.9496 6.8015 41.9496 7.04979C41.872 7.82569 41.4686 8.57056 40.8013 9.00507C40.103 9.47061 39.2029 9.5482 38.3805 9.3775C37.6977 9.23784 37.0614 8.80333 36.6735 8.19813C36.2235 7.4843 36.1459 6.58425 36.3166 5.76179C36.4717 4.98589 36.9994 4.27205 37.7132 3.93066C38.008 3.79099 38.3184 3.69788 38.6288 3.65133Z" fill="#ACB0B9"/>
</svg>
