<svg width="32" height="33" viewBox="0 0 32 33" fill="none" xmlns="http://www.w3.org/2000/svg">
<path d="M32 16.6152C32 7.77868 24.8366 0.615234 16 0.615234C7.16344 0.615234 0 7.77868 0 16.6152C0 25.4518 7.16344 32.6152 16 32.6152C24.8366 32.6152 32 25.4518 32 16.6152Z" fill="#3A3E45"/>
<path d="M14.552 16.3272C14.096 16.3272 13.736 16.7272 13.736 17.2152C13.736 17.7032 14.104 18.1032 14.552 18.1032C15.008 18.1032 15.368 17.7032 15.368 17.2152C15.376 16.7272 15.008 16.3272 14.552 16.3272ZM17.472 16.3272C17.016 16.3272 16.656 16.7272 16.656 17.2152C16.656 17.7032 17.024 18.1032 17.472 18.1032C17.928 18.1032 18.288 17.7032 18.288 17.2152C18.288 16.7272 17.928 16.3272 17.472 16.3272Z" fill="white"/>
<path d="M21.36 9.61523H10.64C9.736 9.61523 9 10.3512 9 11.2632V22.0792C9 22.9912 9.736 23.7272 10.64 23.7272H19.712L19.288 22.2472L20.312 23.1992L21.28 24.0952L23 25.6152V11.2632C23 10.3512 22.264 9.61523 21.36 9.61523ZM18.272 20.0632C18.272 20.0632 17.984 19.7192 17.744 19.4152C18.792 19.1192 19.192 18.4632 19.192 18.4632C18.864 18.6792 18.552 18.8312 18.272 18.9352C17.872 19.1032 17.488 19.2152 17.112 19.2792C16.344 19.4232 15.64 19.3832 15.04 19.2712C14.584 19.1832 14.192 19.0552 13.864 18.9272C13.68 18.8552 13.48 18.7672 13.28 18.6552C13.256 18.6392 13.232 18.6312 13.208 18.6152C13.192 18.6072 13.184 18.5992 13.176 18.5912C13.032 18.5112 12.952 18.4552 12.952 18.4552C12.952 18.4552 13.336 19.0952 14.352 19.3992C14.112 19.7032 13.816 20.0632 13.816 20.0632C12.048 20.0072 11.376 18.8472 11.376 18.8472C11.376 16.2712 12.528 14.1832 12.528 14.1832C13.68 13.3192 14.776 13.3432 14.776 13.3432L14.856 13.4392C13.416 13.8552 12.752 14.4872 12.752 14.4872C12.752 14.4872 12.928 14.3912 13.224 14.2552C14.08 13.8792 14.76 13.7752 15.04 13.7512C15.088 13.7432 15.128 13.7352 15.176 13.7352C15.664 13.6712 16.216 13.6552 16.792 13.7192C17.552 13.8072 18.368 14.0312 19.2 14.4872C19.2 14.4872 18.568 13.8872 17.208 13.4712L17.32 13.3432C17.32 13.3432 18.416 13.3192 19.568 14.1832C19.568 14.1832 20.72 16.2712 20.72 18.8472C20.72 18.8472 20.04 20.0072 18.272 20.0632Z" fill="white"/>
</svg>
