<svg width="106" height="57" viewBox="0 0 106 57" fill="none" xmlns="http://www.w3.org/2000/svg">
<g clip-path="url(#clip0_38515_28219)">
<path fill-rule="evenodd" clip-rule="evenodd" d="M48.1871 35.0502C51.1057 35.0502 53.4797 32.7234 53.4797 29.8635C53.4797 27.0034 51.1057 24.6767 48.1871 24.6767C45.269 24.6767 42.8945 27.0034 42.8945 29.8635C42.8945 32.7234 45.269 35.0502 48.1871 35.0502ZM53.4797 16.9734H53.6233H55.9873V37.525H53.4797V35.473C52.0327 36.7874 50.1668 37.5074 48.1871 37.5074C43.8865 37.5074 40.3874 34.0783 40.3874 29.8635C40.3874 25.6484 43.8865 22.2194 48.1871 22.2194C50.1668 22.2194 52.0327 22.9393 53.4797 24.2538V16.9734ZM-3.81229 34.9597C-0.894015 34.9597 1.48022 32.6329 1.48022 29.7729C1.48022 26.913 -0.894015 24.5862 -3.81229 24.5862C-6.73072 24.5862 -9.10496 26.913 -9.10496 29.7729C-9.10496 32.6329 -6.73072 34.9597 -3.81229 34.9597ZM-9.10496 24.1636C-7.65785 22.849 -5.79153 22.129 -3.81229 22.129C0.4885 22.129 3.98757 25.5581 3.98757 29.7729C3.98757 33.9878 0.4885 37.4169 -3.81229 37.4169C-5.79153 37.4169 -7.65785 36.697 -9.10496 35.3823V42.6629H-11.6123V22.1113H-9.10496V24.1636ZM8.77169 28.5794C9.33602 26.2567 11.4387 24.5889 13.8371 24.5889C16.2042 24.5889 18.187 26.2211 18.7155 28.5794H8.77169ZM13.8371 22.1113C9.60067 22.1113 6.15424 25.5687 6.15424 29.8181C6.15424 34.0677 9.60067 37.525 13.8371 37.525C16.2094 37.525 18.3867 36.634 19.8117 35.0806L20.552 34.2731L20.6474 34.1689L20.5436 34.0728L18.9341 32.5877L18.8303 32.4917L18.7343 32.596L17.9941 33.4036C17.0498 34.4329 15.4959 35.0476 13.8371 35.0476C11.4387 35.0476 9.33612 33.3798 8.77169 31.0568H21.3206V29.8181C21.3206 25.4965 18.0334 22.1113 13.8371 22.1113ZM70.8127 29.8182C70.8127 32.7017 68.4388 35.0475 65.5202 35.0475C62.602 35.0475 60.2276 32.7017 60.2276 29.8182C60.2276 26.9346 62.602 24.5888 65.5202 24.5888C68.4388 24.5888 70.8127 26.9346 70.8127 29.8182ZM65.5202 22.1113C61.2195 22.1113 57.7205 25.5686 57.7205 29.8182C57.7205 34.0677 61.2195 37.525 65.5202 37.525C69.8213 37.525 73.3203 34.0677 73.3203 29.8182C73.3203 25.5686 69.8213 22.1113 65.5202 22.1113ZM30.637 22.1113C28.8948 22.1113 27.2349 22.7748 25.9284 23.9865V22.1113H23.4874V37.525H25.9284V29.6591C25.9284 26.8528 28.0408 24.5695 30.637 24.5695C33.2337 24.5695 35.3465 26.8528 35.3465 29.6591V37.525H37.787V29.6591C37.787 25.4973 34.5795 22.1113 30.637 22.1113Z" fill="#ACB0B9"/>
</g>
<defs>
<clipPath id="clip0_38515_28219">
<rect width="113.244" height="42.4663" fill="white" transform="translate(-39.9229 7.0777)"/>
</clipPath>
</defs>
</svg>
