<svg width="32" height="33" viewBox="0 0 32 33" fill="none" xmlns="http://www.w3.org/2000/svg">
<path d="M0 16.6152C0 25.4518 7.16344 32.6152 16 32.6152C24.8366 32.6152 32 25.4518 32 16.6152C32 7.77868 24.8366 0.615234 16 0.615234C7.16344 0.615234 0 7.77868 0 16.6152Z" fill="#3A3E45"/>
<path d="M16.0002 9.81494C18.2002 9.81494 18.5002 9.81494 19.4002 9.81494C20.2002 9.81494 20.6002 10.0149 20.9002 10.1149C21.3002 10.3149 21.6002 10.4149 21.9002 10.7149C22.2002 11.0149 22.4002 11.3149 22.5002 11.7149C22.6002 12.0149 22.7002 12.4149 22.8002 13.2149C22.8002 14.1149 22.8002 14.3149 22.8002 16.6149C22.8002 18.9149 22.8002 19.1149 22.8002 20.0149C22.8002 20.8149 22.6002 21.2149 22.5002 21.5149C22.3002 21.9149 22.2002 22.2149 21.9002 22.5149C21.6002 22.8149 21.3002 23.0149 20.9002 23.1149C20.6002 23.2149 20.2002 23.3149 19.4002 23.4149C18.5002 23.4149 18.3002 23.4149 16.0002 23.4149C13.7002 23.4149 13.5002 23.4149 12.6002 23.4149C11.8002 23.4149 11.4002 23.2149 11.1002 23.1149C10.7002 22.9149 10.4002 22.8149 10.1002 22.5149C9.8002 22.2149 9.6002 21.9149 9.5002 21.5149C9.4002 21.2149 9.3002 20.8149 9.2002 20.0149C9.2002 19.1149 9.2002 18.9149 9.2002 16.6149C9.2002 14.3149 9.2002 14.1149 9.2002 13.2149C9.2002 12.4149 9.4002 12.0149 9.5002 11.7149C9.7002 11.3149 9.8002 11.0149 10.1002 10.7149C10.4002 10.4149 10.7002 10.2149 11.1002 10.1149C11.4002 10.0149 11.8002 9.91494 12.6002 9.81494C13.5002 9.81494 13.8002 9.81494 16.0002 9.81494ZM16.0002 8.31494C13.7002 8.31494 13.5002 8.31494 12.6002 8.31494C11.7002 8.31494 11.1002 8.51494 10.6002 8.71494C10.1002 8.91494 9.6002 9.21494 9.1002 9.71494C8.6002 10.2149 8.4002 10.6149 8.1002 11.2149C7.9002 11.7149 7.8002 12.3149 7.7002 13.2149C7.7002 14.1149 7.7002 14.4149 7.7002 16.6149C7.7002 18.9149 7.7002 19.1149 7.7002 20.0149C7.7002 20.9149 7.9002 21.5149 8.1002 22.0149C8.3002 22.5149 8.6002 23.0149 9.1002 23.5149C9.6002 24.0149 10.0002 24.2149 10.6002 24.5149C11.1002 24.7149 11.7002 24.8149 12.6002 24.9149C13.5002 24.9149 13.8002 24.9149 16.0002 24.9149C18.2002 24.9149 18.5002 24.9149 19.4002 24.9149C20.3002 24.9149 20.9002 24.7149 21.4002 24.5149C21.9002 24.3149 22.4002 24.0149 22.9002 23.5149C23.4002 23.0149 23.6002 22.6149 23.9002 22.0149C24.1002 21.5149 24.2002 20.9149 24.3002 20.0149C24.3002 19.1149 24.3002 18.8149 24.3002 16.6149C24.3002 14.4149 24.3002 14.1149 24.3002 13.2149C24.3002 12.3149 24.1002 11.7149 23.9002 11.2149C23.7002 10.7149 23.4002 10.2149 22.9002 9.71494C22.4002 9.21494 22.0002 9.01494 21.4002 8.71494C20.9002 8.51494 20.3002 8.41494 19.4002 8.31494C18.5002 8.31494 18.3002 8.31494 16.0002 8.31494Z" fill="white"/>
<path d="M16.0002 12.3149C13.6002 12.3149 11.7002 14.2149 11.7002 16.6149C11.7002 19.0149 13.6002 20.9149 16.0002 20.9149C18.4002 20.9149 20.3002 19.0149 20.3002 16.6149C20.3002 14.2149 18.4002 12.3149 16.0002 12.3149ZM16.0002 19.4149C14.5002 19.4149 13.2002 18.2149 13.2002 16.6149C13.2002 15.1149 14.4002 13.8149 16.0002 13.8149C17.5002 13.8149 18.8002 15.0149 18.8002 16.6149C18.8002 18.1149 17.5002 19.4149 16.0002 19.4149Z" fill="white"/>
<path d="M20.4002 13.2149C20.9525 13.2149 21.4002 12.7672 21.4002 12.2149C21.4002 11.6627 20.9525 11.2149 20.4002 11.2149C19.8479 11.2149 19.4002 11.6627 19.4002 12.2149C19.4002 12.7672 19.8479 13.2149 20.4002 13.2149Z" fill="white"/>
</svg>
