<svg width="32" height="33" viewBox="0 0 32 33" fill="none" xmlns="http://www.w3.org/2000/svg">
<path d="M0 16.6152C0 25.4518 7.16344 32.6152 16 32.6152C24.8366 32.6152 32 25.4518 32 16.6152C32 7.77868 24.8366 0.615234 16 0.615234C7.16344 0.615234 0 7.77868 0 16.6152Z" fill="#3A3E45"/>
<path d="M11.6 24.6152H8.2V13.9152H11.6V24.6152ZM9.9 12.4152C8.8 12.4152 8 11.6152 8 10.5152C8 9.41523 8.9 8.61523 9.9 8.61523C11 8.61523 11.8 9.41523 11.8 10.5152C11.8 11.6152 11 12.4152 9.9 12.4152ZM24 24.6152H20.6V18.8152C20.6 17.1152 19.9 16.6152 18.9 16.6152C17.9 16.6152 16.9 17.4152 16.9 18.9152V24.6152H13.5V13.9152H16.7V15.4152C17 14.7152 18.2 13.6152 19.9 13.6152C21.8 13.6152 23.8 14.7152 23.8 18.0152V24.6152H24Z" fill="white"/>
</svg>
