<svg width="22" height="22" viewBox="0 0 22 22" fill="none" xmlns="http://www.w3.org/2000/svg">
<path d="M8.46154 2.53846C8.46154 1.13651 9.59805 0 11 0C12.402 0 13.5385 1.13651 13.5385 2.53846V19.4615C13.5385 20.8635 12.402 22 11 22C9.59805 22 8.46154 20.8635 8.46154 19.4615V2.53846Z" fill="#06E51C"/>
<path d="M2.41463 13.4146C1.08107 13.4146 0 12.3336 0 11C0 9.66643 1.08107 8.58537 2.41463 8.58537H19.5854C20.9189 8.58537 22 9.66643 22 11C22 12.3336 20.9189 13.4146 19.5854 13.4146H2.41463Z" fill="#06E51C"/>
<path d="M3.1357 6.93417C2.11042 5.95891 2.11042 4.32399 3.1357 3.34873C4.09097 2.44005 5.59097 2.44005 6.54624 3.34873L18.8643 15.0659C19.8896 16.0412 19.8896 17.6761 18.8643 18.6513C17.909 19.56 16.409 19.56 15.4538 18.6513L3.1357 6.93417Z" fill="#06E51C"/>
<path d="M15.4538 3.3487C16.409 2.44002 17.909 2.44002 18.8643 3.3487C19.8896 4.32396 19.8896 5.95888 18.8643 6.93414L6.54624 18.6513C5.59097 19.56 4.09097 19.56 3.1357 18.6513C2.11042 17.6761 2.11042 16.0411 3.1357 15.0659L15.4538 3.3487Z" fill="#06E51C"/>
</svg>
