<svg width="177" height="57" viewBox="0 0 177 57" fill="none" xmlns="http://www.w3.org/2000/svg">
<path fill-rule="evenodd" clip-rule="evenodd" d="M81.7666 20.5519C83.3184 20.257 84.8702 19.9467 86.4065 19.6518C86.391 26.5263 86.391 33.3853 86.4065 40.2443C84.8702 39.934 83.3184 39.6081 81.7821 39.3132C81.7355 38.708 81.7666 38.1028 81.7666 37.4976C81.7511 31.8646 81.7511 26.216 81.7666 20.5519ZM119.305 23.5934C118.001 23.6244 116.667 24.0279 115.658 24.8659C114.82 25.5487 114.215 26.4798 113.874 27.504C113.501 28.6058 113.423 29.8006 113.563 30.9645C113.718 32.2991 114.246 33.6181 115.177 34.5957C115.906 35.3716 116.9 35.9148 117.939 36.1475C119.243 36.4424 120.655 36.3958 121.881 35.8217C122.781 35.4182 123.526 34.7044 124.053 33.8664C124.643 32.9198 124.938 31.818 125.031 30.7007C125.14 29.4437 125 28.1557 124.534 26.9764C124.131 25.9211 123.402 24.9745 122.424 24.3693C121.493 23.7951 120.391 23.5469 119.305 23.5934ZM118.622 19.2639C120.872 19.1087 123.231 19.5277 125.171 20.7226C126.257 21.3898 127.188 22.2744 127.917 23.3141C128.554 24.2452 129.019 25.2849 129.345 26.3712C129.686 27.535 129.811 28.7609 129.826 29.9713C129.826 32.1904 129.314 34.4561 128.088 36.3338C127.017 38.0097 125.388 39.3132 123.526 39.996C122.315 40.4461 121.043 40.6633 119.755 40.6943C117.334 40.7409 114.836 40.1512 112.865 38.7235C111.189 37.5287 109.963 35.7751 109.342 33.8198C108.908 32.5163 108.737 31.1197 108.753 29.7386C108.768 27.3333 109.466 24.8814 110.972 22.9882C112.198 21.4209 113.951 20.3036 115.86 19.7449C116.744 19.4656 117.675 19.3104 118.622 19.2639ZM52.096 20.1794C53.2133 19.5277 54.5013 19.2173 55.7893 19.2328C57.8377 19.3104 59.8085 20.3657 61.0034 22.0416C61.6086 21.2191 62.4466 20.5829 63.3466 20.1329C65.3795 19.1552 67.8469 19.0001 69.9418 19.8536C70.9194 20.257 71.804 20.8777 72.4868 21.6847C73.1851 22.5071 73.6506 23.5003 73.9299 24.5245C74.2248 25.5952 74.3024 26.7125 74.2713 27.8143C74.2713 31.9577 74.2713 36.1165 74.2713 40.2598C72.7351 39.9495 71.1832 39.6236 69.6314 39.3288C69.6159 35.3561 69.6314 31.3835 69.6159 27.4109C69.6314 26.4953 69.3056 25.5642 68.6538 24.928C67.9555 24.2141 66.9313 23.8727 65.9381 23.8883C65.0536 23.8727 64.1536 24.1365 63.4552 24.6952C62.6638 25.3159 62.2448 26.3401 62.2448 27.3488C62.2448 31.6473 62.2448 35.9613 62.2448 40.2598C60.693 39.9495 59.1412 39.6236 57.5894 39.3288C57.5739 38.0563 57.5894 36.7683 57.5739 35.4803C57.5739 32.8112 57.5739 30.142 57.5739 27.4574C57.6049 26.5418 57.2946 25.5952 56.6428 24.9435C56.0686 24.3538 55.2772 24.0124 54.4858 23.9193C53.7254 23.8417 52.9495 23.9038 52.2357 24.1986C51.4908 24.509 50.8546 25.0987 50.5132 25.828C50.2804 26.3246 50.1718 26.8677 50.1718 27.4109C50.1718 30.7628 50.1718 34.1147 50.1718 37.4666C50.1873 38.3977 50.1562 39.3288 50.1873 40.2598C48.6355 39.965 47.0992 39.6236 45.5629 39.3443C45.5319 38.8011 45.5784 38.2425 45.5319 37.7149C45.5474 37.0941 45.5474 36.4734 45.5319 35.8527C45.5784 35.2785 45.5319 34.6888 45.5474 34.1147C45.5474 32.4698 45.5474 30.8248 45.5474 29.1799C45.5319 28.1557 45.5629 27.116 45.5319 26.0918C45.5474 25.5177 45.5474 24.928 45.5319 24.3538C45.5629 23.2055 45.5474 22.0726 45.5474 20.9243C45.5629 20.8157 45.4698 20.645 45.5939 20.5829C47.1302 20.2881 48.651 19.9932 50.1873 19.6984C50.1718 20.3967 50.1873 21.095 50.1873 21.7933C50.7304 21.1416 51.3667 20.5829 52.096 20.1794ZM102.716 19.5432C103.461 19.419 104.221 19.2949 104.966 19.1708C104.966 20.7846 104.966 22.3985 104.966 24.0124C104.221 24.1521 103.476 24.2917 102.732 24.4159C101.614 24.6021 100.45 24.928 99.6124 25.7349C98.9296 26.3712 98.6037 27.3022 98.5416 28.2178C98.4951 28.8696 98.5261 29.5213 98.5261 30.1886C98.5261 33.5405 98.5261 36.8924 98.5261 40.2443C97.2381 39.9805 95.9501 39.7167 94.6466 39.4684C94.3983 39.4219 94.1655 39.3598 93.9017 39.3288C93.8397 38.9718 93.8862 38.6149 93.8707 38.258C93.8707 34.6888 93.8707 31.1352 93.8707 27.566C93.9017 26.4487 94.0879 25.3159 94.5535 24.2762C95.0035 23.2365 95.7949 22.352 96.726 21.7002C97.9675 20.8467 99.4106 20.3346 100.869 19.9467C101.49 19.807 102.08 19.6363 102.716 19.5432ZM83.6288 10.6513C84.3736 10.5582 85.1806 10.6358 85.8168 11.0858C86.5462 11.5669 86.9496 12.4359 86.9651 13.2894C87.0117 13.5377 86.9496 13.8015 86.9496 14.0498C86.872 14.8257 86.4686 15.5706 85.8013 16.0051C85.103 16.4706 84.2029 16.5482 83.3805 16.3775C82.6977 16.2378 82.0614 15.8033 81.6735 15.1981C81.2234 14.4843 81.1459 13.5842 81.3166 12.7618C81.4717 11.9859 81.9994 11.2721 82.7132 10.9307C83.008 10.791 83.3184 10.6979 83.6288 10.6513Z" fill="#ACB0B9"/>
</svg>
