<svg width="178" height="57" viewBox="0 0 178 57" fill="none" xmlns="http://www.w3.org/2000/svg">
<g clip-path="url(#clip0_38515_28223)">
<path d="M65.517 35.7657L66.8159 32.7299C68.2381 33.7831 70.093 34.3405 71.9484 34.3405C73.3089 34.3405 74.1745 33.8141 74.1745 33.0088C74.1435 30.7782 65.9809 32.513 65.9188 26.9052C65.8878 24.0551 68.4234 21.8556 72.0105 21.8556C74.1435 21.8556 76.2774 22.3824 77.7922 23.5908L76.5785 26.6914C75.1847 25.7952 73.4632 25.1704 71.8247 25.1704C70.7116 25.1704 69.9693 25.6967 69.9693 26.3788C70.0003 28.5783 78.2254 27.3699 78.3181 32.7299C78.3181 35.642 75.8441 37.6868 72.3191 37.6868C69.7223 37.6868 67.3414 37.0673 65.5166 35.7657H65.517ZM117.236 31.6306C116.908 32.2131 116.431 32.6979 115.854 33.0354C115.277 33.3728 114.62 33.5506 113.952 33.5507C111.869 33.5507 110.18 31.8585 110.18 29.7712C110.18 27.6838 111.869 25.9916 113.952 25.9916C114.62 25.9917 115.277 26.1696 115.854 26.507C116.431 26.8444 116.908 27.3292 117.236 27.9118L120.847 25.9074C119.494 23.4901 116.914 21.8556 113.952 21.8556C109.589 21.8556 106.052 25.3992 106.052 29.7712C106.052 34.1427 109.589 37.6868 113.952 37.6868C116.914 37.6868 119.494 36.0522 120.847 33.635L117.236 31.6306ZM80.6613 37.3768H85.1756V15.2664H80.6618L80.6613 37.3768ZM123.127 15.2664V37.3768H127.641V30.7525L132.99 37.3768H138.76L131.958 29.5073L138.265 22.1642H132.743L127.641 28.2692V15.2664H123.127ZM99.0836 22.1651V23.9624C98.3417 22.723 96.5173 21.8556 94.6003 21.8556C90.6425 21.8556 87.5197 25.3566 87.5197 29.7556C87.5197 34.1547 90.6425 37.6868 94.6003 37.6868C96.5173 37.6868 98.3417 36.8194 99.0836 35.5799V37.3768H103.598V22.1651H99.0836ZM99.0836 31.6612C98.4343 32.7454 97.0738 33.5503 95.559 33.5503C93.4752 33.5503 91.7866 31.8585 91.7866 29.7712C91.7866 27.6838 93.4752 25.9916 95.559 25.9916C97.0738 25.9916 98.4343 26.828 99.0836 27.9428V31.6612Z" fill="#ACB0B9"/>
<path d="M41.6763 14.7779C40.2134 14.7779 39.0276 15.9663 39.0276 17.4319C39.0272 17.7801 39.0955 18.125 39.2284 18.4468C39.3613 18.7686 39.5563 19.0611 39.8023 19.3075C40.0482 19.554 40.3403 19.7496 40.6619 19.8831C40.9834 20.0167 41.3281 20.0856 41.6763 20.086H44.3255V17.4319C44.3261 16.7287 44.0473 16.054 43.5505 15.5563C43.0537 15.0586 42.3795 14.7786 41.6763 14.7779ZM41.6763 21.8554H34.6126C33.1497 21.8554 31.9639 23.0438 31.9639 24.5098C31.9639 25.9755 33.1497 27.1639 34.6126 27.1639H41.6768C43.1393 27.1639 44.3255 25.9755 44.3255 24.5098C44.3255 23.0438 43.1393 21.8554 41.6763 21.8554Z" fill="#ACB0B9"/>
<path d="M58.4534 24.5098C58.4534 23.0438 57.2672 21.8554 55.8042 21.8554C54.3413 21.8554 53.1555 23.0438 53.1555 24.5098V27.1639H55.8042C56.5075 27.1632 57.1816 26.8832 57.6784 26.3855C58.1752 25.8878 58.454 25.2131 58.4534 24.5098ZM51.3897 24.5098V17.4319C51.3903 16.7287 51.1115 16.054 50.6147 15.5563C50.1179 15.0586 49.4438 14.7786 48.7405 14.7779C47.2776 14.7779 46.0918 15.9663 46.0918 17.4319V24.5094C46.0918 25.9759 47.2776 27.1643 48.7405 27.1643C49.4438 27.1636 50.1179 26.8836 50.6147 26.3859C51.1115 25.8882 51.3903 25.2135 51.3897 24.5103" fill="#ACB0B9"/>
<path d="M48.7405 41.3194C49.4438 41.3187 50.1179 41.0386 50.6147 40.5409C51.1115 40.0432 51.3903 39.3685 51.3897 38.6653C51.3903 37.9621 51.1115 37.2874 50.6147 36.7897C50.1179 36.292 49.4438 36.012 48.7405 36.0113H46.0918V38.6653C46.0918 40.1309 47.2776 41.3194 48.7405 41.3194ZM48.7405 34.2419H55.8047C57.2672 34.2419 58.4534 33.0534 58.4534 31.5874C58.454 30.8842 58.1752 30.2095 57.6784 29.7118C57.1816 29.2141 56.5075 28.9341 55.8042 28.9333H48.7405C47.2776 28.9333 46.0918 30.1218 46.0918 31.5874C46.0914 31.9356 46.1597 32.2804 46.2926 32.6022C46.4255 32.9241 46.6205 33.2165 46.8665 33.463C47.1124 33.7094 47.4045 33.905 47.7261 34.0386C48.0476 34.1722 48.3923 34.2411 48.7405 34.2414" fill="#ACB0B9"/>
<path d="M31.9639 31.5874C31.9635 31.9356 32.0318 32.2804 32.1647 32.6022C32.2976 32.9241 32.4926 33.2165 32.7386 33.463C32.9845 33.7094 33.2766 33.905 33.5982 34.0386C33.9197 34.1722 34.2644 34.2411 34.6126 34.2414C35.3158 34.2407 35.99 33.9607 36.4868 33.463C36.9836 32.9653 37.2624 32.2906 37.2618 31.5874V28.9333H34.6126C33.1497 28.9333 31.9639 30.1218 31.9639 31.5874ZM39.0276 31.5874V38.6649C39.0276 40.1309 40.2134 41.3194 41.6763 41.3194C42.3795 41.3187 43.0537 41.0386 43.5505 40.5409C44.0473 40.0432 44.3261 39.3685 44.3255 38.6653V31.5874C44.3258 31.2392 44.2576 30.8943 44.1246 30.5725C43.9917 30.2506 43.7966 29.9581 43.5506 29.7116C43.3046 29.4652 43.0125 29.2696 42.6909 29.1361C42.3693 29.0025 42.0245 28.9336 41.6763 28.9333C40.2134 28.9333 39.0276 30.1218 39.0276 31.5874Z" fill="#ACB0B9"/>
</g>
<defs>
<clipPath id="clip0_38515_28223">
<rect width="107.051" height="42.4663" fill="white" transform="translate(31.9639 7.0777)"/>
</clipPath>
</defs>
</svg>
