<svg width="178" height="57" viewBox="0 0 178 57" fill="none" xmlns="http://www.w3.org/2000/svg">
<g clip-path="url(#clip0_38515_28221)">
<path d="M65.897 34.578C63.0805 34.578 61.2161 32.4445 60.696 31.6181C61.3633 26.3901 63.3162 24.7372 65.897 24.7372C68.4485 24.7372 70.4308 26.7361 70.4308 29.6575C70.4308 32.579 68.4485 34.578 65.897 34.578ZM65.897 21.5273C61.3044 21.5273 58.7334 24.4585 57.9974 27.4761C57.1632 25.9384 56.545 23.8819 56.0642 21.9694H49.715V29.7057C49.715 32.5118 48.4098 34.5876 45.8584 34.5876C43.3069 34.5876 41.8448 32.5118 41.8448 29.7057L41.8742 21.9694H38.2139V29.7057C38.2139 31.9641 38.9597 34.0111 40.3237 35.4718C41.727 36.9806 43.6406 37.7686 45.8584 37.7686C50.2743 37.7686 53.3557 34.4531 53.3557 29.7057V24.5065C53.8169 26.2171 54.916 29.5038 57.016 32.3869L55.0534 43.333H58.7726L60.0679 35.5775C60.4899 35.9234 60.9413 36.231 61.4221 36.5097C62.6684 37.2785 64.0913 37.711 65.5634 37.759C65.5634 37.759 65.789 37.7686 65.9068 37.7686C70.4602 37.7686 74.0812 34.3186 74.0812 29.6575C74.0812 24.9966 70.4503 21.5273 65.897 21.5273Z" fill="#ACB0B9"/>
<path d="M118.486 23.6231V21.9702H114.895V37.2792H118.535V31.2825C118.535 27.5921 118.879 24.9397 123.932 25.2857V21.7876C121.577 21.6146 119.742 22.0951 118.486 23.6231Z" fill="#ACB0B9"/>
<path d="M93.2086 21.9705L90.5688 32.6763L87.7524 21.9705H83.1206L80.2943 32.6763L77.6644 21.9705H73.9746L78.0177 37.2893H82.3944L85.4365 26.4104L88.4491 37.2893H92.8259L97.1045 21.9705H93.2086Z" fill="#ACB0B9"/>
<path d="M105.122 34.5876C102.531 34.5876 100.588 32.5888 100.588 29.6575C100.588 26.7265 102.541 24.7372 105.122 24.7372C107.673 24.7372 109.655 26.7361 109.655 29.6575C109.655 32.579 107.673 34.5876 105.122 34.5876ZM105.122 21.5273C100.539 21.5273 96.9473 25.0062 96.9473 29.6575C96.9473 34.3089 100.539 37.759 105.122 37.759C109.675 37.759 113.296 34.3089 113.296 29.6575C113.296 25.0062 109.685 21.5273 105.122 21.5273Z" fill="#ACB0B9"/>
<path d="M129.154 29.754H129.998L135.082 37.2884H139.193L133.345 28.9371C136.181 27.8511 138.085 25.0161 138.085 21.9697H134.454C134.454 25.2756 131.794 26.5249 129.154 26.5249V15.9249H125.504V37.2884H129.145L129.154 29.754Z" fill="#ACB0B9"/>
</g>
<defs>
<clipPath id="clip0_38515_28221">
<rect width="100.858" height="42.4663" fill="white" transform="translate(38.2139 7.0777)"/>
</clipPath>
</defs>
</svg>
